<svg width="25" height="20" viewBox="0 0 25 20" fill="none" xmlns="http://www.w3.org/2000/svg">
<path d="M0.900641 6.10467C0.915351 6.0777 0.939867 6.05171 0.9433 6.02328C1.04137 5.25492 1.40961 4.63269 1.98379 4.12862C2.33487 3.8202 2.73645 3.58974 3.19884 3.50148C3.51854 3.44019 3.84608 3.3941 4.17068 3.39067C5.47645 3.37841 6.78221 3.38576 8.08748 3.38576C8.15024 3.38576 8.2135 3.38576 8.28754 3.38576C8.29048 3.32938 8.2944 3.29015 8.29489 3.25141C8.29832 2.75372 8.28607 2.25554 8.30715 1.75883C8.34147 0.954194 8.92105 0.264782 9.70853 0.0769842C9.89682 0.0323637 10.0939 0.0044146 10.2866 0.00343393C12.0259 -0.00195976 13.7656 0.000981895 15.5048 1.22547e-06C16.0383 -0.000489109 16.5188 0.146121 16.9101 0.518776C17.3146 0.904179 17.5068 1.38471 17.5039 1.94369C17.5019 2.37715 17.5029 2.81109 17.5029 3.24504C17.5029 3.28475 17.5029 3.32447 17.5029 3.37596C17.5779 3.37939 17.6407 3.38527 17.7034 3.38527C19.0273 3.38576 20.3512 3.38184 21.6752 3.38871C21.9434 3.39018 22.217 3.40293 22.4773 3.45932C23.0206 3.577 23.5026 3.82854 23.9111 4.21296C24.3862 4.65966 24.6941 5.20196 24.8309 5.83793C24.8707 6.02328 24.8927 6.21598 24.8947 6.40525C24.902 7.1128 24.8981 7.82035 24.8981 8.52791C24.8981 8.5637 24.8937 8.5995 24.8908 8.6397C21.2412 9.37177 17.5965 10.1034 13.9308 10.8389C13.9308 10.5603 13.9347 10.3059 13.9298 10.0514C13.9239 9.74835 13.7915 9.51838 13.5076 9.39629C13.4179 9.35755 13.314 9.33451 13.2164 9.33353C12.9663 9.33059 12.7158 9.34186 12.4652 9.35216C12.1538 9.36491 11.8719 9.66598 11.868 10.0327C11.8655 10.2608 11.8675 10.4892 11.8665 10.7177C11.8665 10.7486 11.8611 10.78 11.8567 10.833C11.615 10.7864 11.3806 10.7423 11.1467 10.6957C10.5578 10.5785 9.96939 10.4613 9.38098 10.3421C8.79356 10.223 8.20712 10.098 7.61921 9.98077C7.11171 9.87927 6.60176 9.78856 6.09427 9.68608C5.50734 9.56791 4.92237 9.43895 4.33544 9.32078C3.83235 9.21928 3.32731 9.12857 2.82423 9.02903C2.32948 8.93096 1.8362 8.82603 1.34194 8.72698C1.19533 8.69756 1.04676 8.67746 0.89917 8.65294C0.900641 7.80319 0.900641 6.95393 0.900641 6.10467ZM9.3295 3.37596C9.40648 3.37988 9.45601 3.38478 9.50553 3.38478C11.7694 3.38527 14.0328 3.3838 16.2967 3.38871C16.4413 3.3892 16.4737 3.33722 16.4727 3.20875C16.4683 2.77088 16.4727 2.33253 16.4688 1.89417C16.4678 1.80002 16.4619 1.69999 16.4305 1.61271C16.2854 1.20917 15.9716 1.02284 15.5278 1.02137C13.8622 1.01549 12.196 1.01794 10.5303 1.02088C10.3538 1.02137 10.1763 1.03657 10.0013 1.05863C9.65606 1.10227 9.34715 1.43963 9.33734 1.78727C9.32754 2.12953 9.33146 2.47178 9.32999 2.81403C9.32852 2.99595 9.3295 3.17786 9.3295 3.37596Z" fill="black"/>
<path d="M13.9303 11.4822C17.4808 10.7697 21.0098 10.0617 24.5627 9.34873C24.5627 9.42474 24.5627 9.47328 24.5627 9.52182C24.5627 11.8318 24.5681 14.1418 24.5603 16.4522C24.5568 17.4319 24.1611 18.2262 23.3521 18.7955C22.848 19.1505 22.2768 19.279 21.6668 19.279C16.2614 19.2775 10.8559 19.2785 5.45045 19.2775C4.89834 19.2775 4.34524 19.2859 3.7941 19.2579C2.98309 19.2167 2.33241 18.8446 1.82835 18.2155C1.42824 17.7153 1.23848 17.1348 1.2375 16.4993C1.23259 14.1663 1.23553 11.8333 1.23553 9.50074C1.23553 9.46053 1.23946 9.42032 1.24289 9.35118C4.78654 10.0622 8.31891 10.7712 11.868 11.4832C11.868 11.6793 11.8626 11.87 11.8689 12.0608C11.8792 12.3594 12.0146 12.584 12.2936 12.7036C12.375 12.7384 12.4696 12.7575 12.5584 12.7575C12.8408 12.7571 13.1242 12.758 13.4052 12.7325C13.6861 12.707 13.921 12.3893 13.9288 12.0559C13.9342 11.8681 13.9303 11.6817 13.9303 11.4822Z" fill="black"/>
</svg>
