<svg width="16" height="12" viewBox="0 0 16 12" fill="none" xmlns="http://www.w3.org/2000/svg">
<path d="M6.80158 11.9375C6.55325 11.9377 6.31499 11.8393 6.13908 11.664L1.01096 6.55309C0.923143 6.46624 0.853309 6.36292 0.805454 6.24906C0.7576 6.13519 0.732661 6.01301 0.732067 5.8895C0.731472 5.76599 0.755232 5.64357 0.801988 5.52925C0.848744 5.41493 0.917579 5.31095 1.00456 5.22325C1.09153 5.13556 1.19494 5.06587 1.30887 5.01818C1.42281 4.97048 1.54502 4.94571 1.66853 4.94529C1.79205 4.94487 1.91443 4.9688 2.02868 5.01572C2.14294 5.06263 2.24682 5.13161 2.3344 5.21871L6.70002 9.57496L13.575 0.435901C13.6477 0.334058 13.7401 0.247806 13.8467 0.182231C13.9533 0.116655 14.0719 0.0730824 14.1956 0.0540818C14.3193 0.0350813 14.4456 0.0410373 14.5669 0.0715987C14.6883 0.10216 14.8023 0.156709 14.9022 0.232028C15.0022 0.307347 15.086 0.401913 15.1488 0.51015C15.2116 0.618387 15.2521 0.738104 15.268 0.862244C15.2838 0.986384 15.2746 1.11243 15.2409 1.23296C15.2072 1.35349 15.1498 1.46606 15.0719 1.56403L7.54533 11.564C7.46542 11.671 7.36358 11.7596 7.24663 11.824C7.12968 11.8884 7.00032 11.9271 6.86721 11.9375H6.80158Z" fill="#068323"/>
</svg>
