<svg width="27" height="24" viewBox="0 0 27 24" fill="none" xmlns="http://www.w3.org/2000/svg">
<path d="M0.00173137 12.7627C0.0112519 12.7354 0.0272639 12.709 0.0289949 12.6813C0.0441412 12.4758 0.049767 12.2693 0.07227 12.0647C0.103428 11.7838 0.142808 11.5042 0.186516 11.2251C0.22027 11.0079 0.258352 10.7906 0.308119 10.5769C0.380821 10.2635 0.455254 9.95023 0.549161 9.64298C0.65432 9.29721 0.768999 8.95317 0.90272 8.61779C1.06067 8.22139 1.23507 7.83105 1.41813 7.44547C1.64835 6.96165 1.92271 6.50207 2.21828 6.05504C2.56189 5.53487 2.94054 5.04153 3.35122 4.572C3.93501 3.90426 4.5824 3.30404 5.28389 2.76267C5.93691 2.25851 6.63148 1.81494 7.37062 1.44927C7.8315 1.22121 8.30882 1.02474 8.78658 0.83346C9.10508 0.705799 9.43528 0.6054 9.76417 0.506733C10.0121 0.432733 10.2662 0.377341 10.5193 0.321083C10.7686 0.265691 11.0191 0.214626 11.2706 0.170919C11.4731 0.135866 11.6769 0.10817 11.8816 0.0891286C12.2382 0.0558067 12.5957 0.0207537 12.9531 0.00647296C13.2915 -0.00694233 13.6304 0.0043092 13.9692 0.00647296C14.0428 0.00690571 14.1163 0.0129642 14.1899 0.0172917C14.4128 0.0311398 14.6378 0.0311398 14.8585 0.0622979C15.3116 0.126345 15.766 0.190825 16.2139 0.285597C16.6678 0.381235 17.1192 0.497213 17.5619 0.634828C17.9445 0.753834 18.3153 0.912654 18.6888 1.05979C19.1813 1.25409 19.6499 1.4986 20.1095 1.75998C20.6163 2.04819 21.1005 2.37016 21.5649 2.72285C22.1404 3.15993 22.6792 3.63855 23.1777 4.16218C23.6161 4.6222 24.0216 5.10947 24.3907 5.62705C24.7914 6.18962 25.1498 6.77686 25.46 7.39483C25.7162 7.90548 25.9512 8.42435 26.1291 8.96745C26.2481 9.33053 26.3593 9.69664 26.4649 10.0636C26.6094 10.5656 26.7103 11.0771 26.7687 11.596C26.8089 11.9526 26.8496 12.3092 26.8695 12.667C26.8916 13.0669 26.9067 13.4681 26.8951 13.8679C26.8842 14.2496 26.8431 14.6309 26.8016 15.0108C26.7665 15.3324 26.7224 15.6535 26.6635 15.9715C26.612 16.2524 26.5389 16.5293 26.4679 16.8059C26.4039 17.0556 26.3385 17.3053 26.2589 17.5502C26.1663 17.8358 26.0724 18.1223 25.9529 18.3971C25.7552 18.8528 25.5488 19.3059 25.3237 19.7486C24.9961 20.3929 24.5984 20.9953 24.1609 21.5696C23.7122 22.159 23.2206 22.7129 22.677 23.2171C22.404 23.4702 22.1157 23.7074 21.8319 23.9489C21.8016 23.9748 21.7548 23.9943 21.7159 23.9947C21.3178 23.9982 20.9196 23.9969 20.5215 23.9965C20.5016 23.9965 20.4817 23.9934 20.4336 23.9895C22.6099 22.5026 24.2137 20.5738 25.1883 18.1431C26.1741 15.6842 26.3632 13.156 25.7664 10.5773C25.1744 8.01973 23.897 5.84948 21.9513 4.09208C19.498 1.87596 16.6016 0.762489 13.2941 0.803168C9.98703 0.843414 7.12568 2.03867 4.72088 4.30196C3.32742 5.61363 2.29921 7.18105 1.61936 8.97134C0.933445 10.7772 0.685046 12.6471 0.853818 14.5698C1.02216 16.4861 1.60421 18.2729 2.59305 19.9225C3.57496 21.5605 4.86715 22.9077 6.45362 23.9744C6.45059 23.9822 6.44713 23.99 6.4441 23.9978C6.41337 23.9978 6.38221 23.9978 6.35149 23.9978C5.99144 23.9978 5.63182 23.9943 5.27177 23.9999C5.16878 24.0017 5.09088 23.9714 5.01169 23.9069C4.28294 23.3149 3.6204 22.6571 3.02709 21.9292C2.56492 21.3619 2.15121 20.7612 1.7851 20.1272C1.51247 19.6551 1.26926 19.1687 1.05721 18.6676C0.926954 18.3594 0.811842 18.0444 0.706683 17.7268C0.586811 17.3637 0.467804 16.9984 0.381687 16.6267C0.280423 16.1909 0.202529 15.7482 0.137616 15.3051C0.083522 14.936 0.0640474 14.5621 0.0272635 14.1903C0.024667 14.1626 0.00952053 14.1362 0 14.109C0.001731 13.6598 0.00173137 13.2114 0.00173137 12.7627Z" fill="black"/>
<path d="M12.3308 18.4923C12.3308 17.9055 12.3325 17.3187 12.3291 16.7319C12.3286 16.6505 12.3524 16.6267 12.4329 16.6267C13.1465 16.6293 13.8602 16.6293 14.5733 16.6267C14.6568 16.6263 14.6772 16.6549 14.6772 16.7341C14.675 17.9077 14.675 19.0813 14.6776 20.2545C14.6776 20.3428 14.6534 20.3696 14.5629 20.3692C13.8584 20.3653 13.1535 20.367 12.449 20.367C12.3317 20.367 12.3312 20.367 12.3312 20.2523C12.3308 19.6655 12.3308 19.0787 12.3308 18.4923ZM13.0098 18.4793C13.1786 18.4793 13.3322 18.4668 13.4832 18.4819C13.8139 18.5148 13.9277 18.8359 13.8035 19.0926C13.6896 19.3271 13.4174 19.3691 13.1903 19.3085C13.1111 19.2873 13.0362 19.2501 12.9462 19.2146C12.9462 19.2622 12.9462 19.2968 12.9462 19.3314C12.9462 19.4617 12.9449 19.4677 13.0751 19.4928C13.1807 19.5132 13.2894 19.5223 13.3971 19.5262C13.7191 19.5383 14.0038 19.3557 14.077 19.0242C14.1285 18.7922 14.0571 18.498 13.8329 18.366C13.6754 18.2734 13.504 18.2448 13.3253 18.256C13.2465 18.2608 13.2218 18.2344 13.2253 18.1565C13.2309 18.0271 13.2314 17.8969 13.2253 17.7675C13.2214 17.6861 13.2556 17.6662 13.3283 17.6675C13.517 17.6705 13.7057 17.6649 13.8943 17.6701C13.974 17.6723 13.9973 17.6433 13.9939 17.5675C13.9908 17.5005 13.9943 17.4477 13.8995 17.4498C13.6343 17.4546 13.3685 17.4533 13.1033 17.4503C13.0284 17.4494 13.0076 17.4788 13.0089 17.5498C13.0128 17.7592 13.0102 17.9687 13.0102 18.1777C13.0098 18.2742 13.0098 18.3707 13.0098 18.4793Z" fill="black"/>
<path d="M12.0071 16.6363C12.0071 16.6713 12.0071 16.7029 12.0071 16.7349C12.0071 17.909 12.0062 19.0826 12.0093 20.2567C12.0097 20.3454 11.9885 20.37 11.8972 20.3696C11.1719 20.3657 10.4462 20.3661 9.72046 20.3692C9.63953 20.3696 9.61616 20.3475 9.61616 20.2657C9.61876 19.0861 9.61833 17.9064 9.6166 16.7267C9.6166 16.6575 9.63001 16.6276 9.70704 16.628C10.4475 16.6306 11.1875 16.6293 11.9279 16.6298C11.9513 16.6289 11.9742 16.6332 12.0071 16.6363ZM10.1575 18.5079C10.1567 18.7455 10.1839 18.9779 10.2874 19.1947C10.4583 19.5526 10.8443 19.6158 11.123 19.4409C11.3567 19.2947 11.4346 19.0484 11.4666 18.7914C11.5021 18.5075 11.5004 18.2219 11.4329 17.9419C11.3952 17.7848 11.3325 17.6359 11.197 17.5351C10.8893 17.3053 10.4496 17.4265 10.2891 17.7852C10.1861 18.015 10.1597 18.2595 10.1575 18.5079Z" fill="black"/>
<path d="M17.2862 16.6354C17.2862 16.6735 17.2862 16.7051 17.2862 16.7367C17.2862 17.9099 17.2854 19.083 17.2884 20.2567C17.2888 20.3467 17.2646 20.37 17.175 20.3696C16.4588 20.3657 15.7426 20.3662 15.026 20.3696C14.9416 20.37 14.9221 20.3424 14.9221 20.264C14.9239 19.0848 14.9243 17.9055 14.9217 16.7267C14.9217 16.6475 14.9472 16.6276 15.023 16.6276C15.7422 16.6302 16.4614 16.6289 17.1807 16.6293C17.2127 16.6289 17.2443 16.6324 17.2862 16.6354ZM15.505 18.5265C15.5003 18.7204 15.5284 18.9324 15.6089 19.1337C15.6903 19.3379 15.8274 19.4903 16.0546 19.5223C16.3238 19.5604 16.5341 19.46 16.6769 19.2228C16.8094 19.0034 16.8319 18.7563 16.8375 18.5131C16.8422 18.3132 16.8124 18.1094 16.7721 17.9125C16.7436 17.7714 16.6752 17.6377 16.5558 17.5416C16.2935 17.3308 15.8123 17.3849 15.6383 17.7826C15.5379 18.0129 15.5046 18.2552 15.505 18.5265Z" fill="black"/>
<path d="M7.69129 9.43398C7.83799 9.5612 7.98599 9.68713 8.13139 9.81566C8.74027 10.354 9.34786 10.8932 9.95674 11.4316C10.3441 11.7743 10.7318 12.1162 11.1195 12.4585C11.68 12.9531 12.2408 13.4482 12.8016 13.9428C13.0777 14.1864 13.3538 14.4301 13.6317 14.6711C13.6572 14.6932 13.7022 14.714 13.7316 14.7075C13.9891 14.6504 14.2055 14.7404 14.3994 14.8953C14.8023 15.2164 14.7901 15.9019 14.3803 16.2135C13.8887 16.5869 13.2145 16.3814 13.0219 15.7933C12.9921 15.7015 13.005 15.5964 12.9921 15.4986C12.9873 15.4618 12.9726 15.4198 12.9488 15.3925C12.7051 15.1138 12.4589 14.8377 12.2135 14.5612C11.7198 14.006 11.226 13.4508 10.7322 12.8951C10.3146 12.4256 9.89659 11.9556 9.47941 11.4861C8.99949 10.946 8.52001 10.4055 8.04052 9.86543C7.91848 9.72781 7.79644 9.58977 7.67441 9.45172C7.68003 9.44609 7.68566 9.44003 7.69129 9.43398Z" fill="black"/>
<path d="M20.5397 3.98389C20.711 4.12626 20.8768 4.26345 21.0421 4.40149C21.0577 4.41448 21.0711 4.42919 21.0867 4.44217C21.2325 4.56464 21.2325 4.56464 21.1092 4.71221C20.5029 5.43447 19.8966 6.15673 19.2903 6.87856C19.1704 7.02137 19.1704 7.02137 19.0311 6.90453C18.8662 6.76605 18.7026 6.62583 18.5352 6.48995C18.4893 6.45273 18.488 6.42937 18.5248 6.38566C18.7425 6.12774 18.9567 5.86636 19.1739 5.608C19.6261 5.06923 20.0792 4.53132 20.5397 3.98389Z" fill="black"/>
<path d="M24.74 15.5912C24.5015 15.547 24.2726 15.5029 24.0428 15.4626C23.768 15.4146 23.4923 15.3713 23.2175 15.3224C22.9899 15.2822 22.7631 15.2359 22.5359 15.1943C22.3892 15.1675 22.2421 15.1454 22.095 15.1208C21.9474 15.0961 21.7998 15.071 21.6527 15.0459C21.6042 15.0377 21.593 15.0121 21.6025 14.9637C21.6445 14.7417 21.6826 14.5184 21.7228 14.2959C21.7315 14.2475 21.7436 14.1994 21.7544 14.1492C21.8461 14.1613 21.9297 14.1696 22.0123 14.1838C22.4485 14.26 22.8843 14.3379 23.3205 14.4149C23.646 14.4725 23.971 14.5301 24.2959 14.5885C24.4751 14.6205 24.6538 14.6551 24.833 14.6858C24.881 14.6941 24.8988 14.7148 24.8914 14.7633C24.8754 14.8672 24.8641 14.9723 24.8468 15.0762C24.8235 15.2177 24.7971 15.3588 24.7698 15.4998C24.7646 15.5288 24.7516 15.5557 24.74 15.5912Z" fill="black"/>
<path d="M5.28562 11.2173C5.25533 11.3943 5.22763 11.5562 5.19994 11.7176C5.18306 11.8163 5.16099 11.9141 5.15104 12.0136C5.14454 12.0785 5.12161 12.1049 5.05713 12.0936C4.90091 12.0664 4.74468 12.0396 4.58846 12.0123C4.35391 11.9716 4.11936 11.9318 3.88524 11.8894C3.59183 11.8362 3.29929 11.7782 3.00589 11.7267C2.72763 11.6778 2.4485 11.6358 2.17025 11.5891C2.11009 11.5791 2.05081 11.5622 1.97464 11.5445C2.02484 11.2567 2.07504 10.9702 2.12913 10.6608C3.17942 10.8465 4.22495 11.0308 5.28562 11.2173Z" fill="black"/>
<path d="M5.67466 4.54261C5.89277 4.35999 6.10698 4.18126 6.3199 4.0021C6.37789 3.9532 6.39736 4.01292 6.42073 4.04018C6.64706 4.30632 6.87079 4.57506 7.09582 4.8425C7.51689 5.34363 7.93795 5.84432 8.36032 6.34458C8.40706 6.39954 8.41744 6.43373 8.3495 6.48696C8.16169 6.63453 7.9808 6.79032 7.80034 6.94697C7.74798 6.99241 7.71422 6.98895 7.67138 6.93745C7.47188 6.69771 7.27022 6.46013 7.06986 6.22125C6.84959 5.959 6.62975 5.69632 6.40991 5.43364C6.17276 5.15062 5.93605 4.8676 5.69933 4.58415C5.69241 4.57549 5.68765 4.56468 5.67466 4.54261Z" fill="black"/>
<path d="M6.42982 8.54726C6.28917 8.79263 6.15286 9.02891 6.0187 9.26606C5.99014 9.31626 5.96115 9.31799 5.91311 9.2903C5.44834 9.01983 4.9827 8.75195 4.51749 8.48278C4.10075 8.24174 3.68574 7.9981 3.26727 7.76009C3.21101 7.72806 3.21448 7.7008 3.24001 7.65623C3.36204 7.44461 3.48408 7.23343 3.60395 7.02052C3.63727 6.96166 3.668 6.94608 3.73335 6.98416C4.35997 7.35071 4.98832 7.71465 5.61668 8.07816C5.86032 8.21924 6.10525 8.35728 6.34976 8.49706C6.37486 8.51134 6.39866 8.52779 6.42982 8.54726Z" fill="black"/>
<path d="M20.5219 22.2845C20.3562 22.0876 20.1939 21.8946 20.0312 21.7012C19.7577 21.3762 19.4842 21.0512 19.2103 20.7262C18.9744 20.4462 18.7381 20.1671 18.5027 19.8866C18.4737 19.852 18.4711 19.8196 18.5135 19.7845C18.7243 19.6101 18.9329 19.4322 19.1501 19.2488C19.2579 19.3756 19.3626 19.4985 19.4669 19.6214C19.7348 19.939 20.0035 20.2566 20.2705 20.5751C20.525 20.8785 20.7777 21.1836 21.0313 21.4878C21.072 21.5367 21.1092 21.5895 21.155 21.6332C21.2126 21.6877 21.194 21.7276 21.1438 21.7691C20.9395 21.9379 20.7361 22.1067 20.5219 22.2845Z" fill="black"/>
<path d="M3.6442 19.2903C3.54943 19.1281 3.45725 18.9705 3.36507 18.8126C3.3231 18.7399 3.28631 18.6637 3.23914 18.5949C3.19587 18.5317 3.20539 18.4962 3.27203 18.459C3.54596 18.3045 3.8173 18.1466 4.08993 17.9895C4.53307 17.7342 4.97621 17.4793 5.41934 17.2239C5.60023 17.1197 5.78156 17.0158 5.9685 16.9089C6.11088 17.1521 6.25066 17.3888 6.38741 17.6273C6.41294 17.6718 6.39347 17.7069 6.3463 17.7337C5.83219 18.028 5.31894 18.324 4.8057 18.62C4.42142 18.8416 4.03757 19.0636 3.6442 19.2903Z" fill="black"/>
<path d="M16.7358 5.42625C16.4541 5.32455 16.1806 5.22589 15.8872 5.11986C16.2541 4.11199 16.6181 3.11103 16.9846 2.10489C17.272 2.21004 17.5481 2.31088 17.8319 2.41517C17.4658 3.42045 17.1023 4.41837 16.7358 5.42625Z" fill="black"/>
<path d="M23.6767 18.53C23.5369 18.7741 23.4002 19.0138 23.2617 19.2523C23.2392 19.2908 23.2141 19.3037 23.163 19.2739C22.5429 18.9134 21.9206 18.5568 21.2991 18.1985C21.0404 18.0492 20.7833 17.8964 20.5232 17.7493C20.4691 17.7186 20.4592 17.6887 20.4882 17.6381C20.6128 17.4217 20.737 17.2049 20.8608 16.9881C20.8889 16.9392 20.9127 16.9318 20.9694 16.9647C21.6774 17.3771 22.3884 17.7848 23.0981 18.1942C23.2894 18.305 23.4798 18.4157 23.6767 18.53Z" fill="black"/>
<path d="M5.65346 21.6908C5.77809 21.5415 5.8984 21.3969 6.01913 21.2528C6.55964 20.608 7.10058 19.9637 7.64152 19.3189C7.71249 19.234 7.71768 19.234 7.79904 19.3033C7.99637 19.4712 8.19544 19.6382 8.40186 19.8122C8.2768 19.9637 8.15476 20.1143 8.03013 20.2623C7.64455 20.7218 7.2581 21.181 6.87252 21.6401C6.70981 21.834 6.54709 22.0279 6.38524 22.2226C6.35322 22.2607 6.32509 22.2581 6.28917 22.227C6.08275 22.0521 5.87546 21.8782 5.65346 21.6908Z" fill="black"/>
<path d="M21.7535 12.1231C21.7219 11.9439 21.6908 11.7678 21.6601 11.5917C21.644 11.4991 21.635 11.4047 21.6112 11.3143C21.5943 11.2502 21.625 11.2329 21.6722 11.2251C21.8998 11.1871 22.1283 11.1533 22.3559 11.1131C22.6943 11.0533 23.0315 10.9889 23.3694 10.9283C23.5308 10.8993 23.6931 10.8763 23.8545 10.8473C24.0813 10.8062 24.3076 10.7612 24.5344 10.7188C24.592 10.708 24.6508 10.6959 24.7088 10.6963C24.7296 10.6968 24.7633 10.7305 24.7681 10.7534C24.7988 10.9027 24.8243 11.0529 24.8499 11.2031C24.8663 11.3009 24.8715 11.4017 24.897 11.4973C24.9165 11.5709 24.888 11.5822 24.8282 11.5925C24.4725 11.6544 24.1177 11.7202 23.7619 11.7825C23.5949 11.8115 23.427 11.8332 23.2599 11.8621C22.9912 11.9089 22.7229 11.9591 22.4546 12.008C22.2438 12.0461 22.0335 12.0846 21.8228 12.1222C21.8029 12.1261 21.7821 12.1231 21.7535 12.1231Z" fill="black"/>
<path d="M10.1645 5.40896C10.0723 5.15667 9.9827 4.91086 9.89312 4.66506C9.74988 4.27385 9.60621 3.88265 9.46297 3.49144C9.3379 3.15 9.21371 2.80813 9.08777 2.46712C9.06917 2.41605 9.09859 2.39398 9.13451 2.38057C9.37555 2.29099 9.61746 2.20487 9.85807 2.11573C9.90827 2.09712 9.92861 2.12048 9.94332 2.16116C10.058 2.4788 10.1722 2.79688 10.2882 3.11451C10.4302 3.50313 10.5734 3.8913 10.7158 4.28035C10.808 4.53221 10.8988 4.78407 10.9888 5.0368C11.0088 5.09219 10.9962 5.12075 10.9291 5.14325C10.7024 5.21985 10.4799 5.30986 10.2558 5.39338C10.2315 5.40204 10.2038 5.40247 10.1645 5.40896Z" fill="black"/>
<path d="M23.6827 7.73672C23.6611 7.7536 23.6412 7.77307 23.6178 7.78692C23.0665 8.10499 22.5152 8.42263 21.9634 8.74027C21.6389 8.92722 21.3134 9.11244 20.9915 9.30328C20.9248 9.34266 20.8954 9.32578 20.8625 9.26779C20.7435 9.05531 20.6245 8.8424 20.4999 8.63295C20.4657 8.57539 20.4791 8.55462 20.531 8.52476C20.8006 8.37157 21.0676 8.21491 21.3359 8.05998C21.9448 7.70859 22.5546 7.35806 23.1626 7.00494C23.2197 6.97162 23.2439 6.97378 23.2777 7.03393C23.401 7.2542 23.5313 7.47058 23.6585 7.68868C23.6663 7.70123 23.6719 7.71465 23.6827 7.73672Z" fill="black"/>
<path d="M2.12914 15.5682C2.08024 15.3081 2.03436 15.0671 1.98892 14.8261C1.96296 14.6889 1.97854 14.6755 2.11788 14.6525C2.35763 14.6131 2.59607 14.5655 2.83539 14.5227C2.97949 14.4967 3.1236 14.4738 3.2677 14.4491C3.48797 14.4115 3.70781 14.3738 3.92765 14.3362C4.17345 14.2942 4.41926 14.2527 4.66506 14.2102C4.79705 14.1873 4.92947 14.1635 5.06146 14.1401C5.11166 14.1311 5.13805 14.1505 5.14671 14.2025C5.18696 14.4431 5.2298 14.6832 5.27091 14.9239C5.27524 14.9494 5.27437 14.9762 5.27654 15.013C4.22841 15.1978 3.18288 15.3821 2.12914 15.5682Z" fill="black"/>
<path d="M13.8943 4.76068C13.5962 4.76068 13.3084 4.76068 13.0098 4.76068C13.0076 4.72693 13.0042 4.6962 13.0042 4.66548C13.0037 3.66669 13.005 2.66747 13.002 1.66868C13.0016 1.58213 13.028 1.55832 13.1119 1.56049C13.3447 1.56568 13.5776 1.56438 13.8104 1.56092C13.8792 1.56006 13.9017 1.58126 13.9013 1.6518C13.8991 2.66271 13.9 3.67318 13.8995 4.68409C13.9 4.70659 13.8965 4.72952 13.8943 4.76068Z" fill="black"/>
<path d="M11.2476 18.4811C11.2381 18.7 11.2442 18.9203 11.1394 19.1246C11.0724 19.2553 10.9776 19.3288 10.8266 19.3319C10.6673 19.3353 10.5652 19.2496 10.5042 19.1198C10.4618 19.0294 10.4384 18.9264 10.4263 18.8268C10.4072 18.6732 10.3886 18.5161 10.4003 18.3629C10.4142 18.1825 10.4245 17.9977 10.515 17.8298C10.5907 17.6887 10.7019 17.6065 10.859 17.6195C11.0213 17.6324 11.1269 17.7402 11.1637 17.8921C11.2104 18.0842 11.2351 18.282 11.2688 18.4772C11.2623 18.4785 11.255 18.4798 11.2476 18.4811Z" fill="black"/>
<path d="M16.6042 18.3989C16.5835 18.707 16.5917 18.9242 16.4878 19.1259C16.4143 19.2691 16.3082 19.3384 16.1477 19.331C15.9932 19.3241 15.8958 19.2332 15.8447 19.1034C15.7448 18.848 15.7266 18.5797 15.756 18.3084C15.7742 18.144 15.7842 17.9791 15.8655 17.8272C15.9395 17.6891 16.0486 17.6143 16.2026 17.6177C16.3407 17.6203 16.4744 17.7302 16.5112 17.8865C16.5579 18.0842 16.5848 18.2876 16.6042 18.3989Z" fill="black"/>
</svg>
