<svg width="26" height="24" viewBox="0 0 26 24" fill="none" xmlns="http://www.w3.org/2000/svg">
<path d="M10.2448 19.7203C12.5851 19.7203 14.9072 19.7203 17.2293 19.7203C19.6597 19.7203 22.089 19.7203 24.5194 19.7203C24.6802 19.7203 24.8453 19.7031 25.0008 19.7321C25.4607 19.8189 25.7373 20.0966 25.7394 20.5758C25.7416 21.0561 25.4661 21.3359 25.0072 21.4249C24.8346 21.4581 24.6513 21.4388 24.4722 21.4388C19.9342 21.4388 15.3961 21.4388 10.858 21.4388C10.6618 21.4388 10.4667 21.4388 10.2416 21.4388C10.173 21.6039 10.1119 21.7669 10.0379 21.9234C9.41074 23.2646 8.35689 24.0032 6.87636 24C5.3969 23.9957 4.32162 23.2656 3.73842 21.9041C3.57332 21.5181 3.38678 21.4109 2.99547 21.4302C2.31792 21.4635 1.63823 21.4485 0.959605 21.4367C0.393552 21.427 0.00439598 21.0497 0.020477 20.5565C0.035486 20.0784 0.407489 19.7342 0.953173 19.7256C1.70362 19.7139 2.45408 19.7364 3.20345 19.7096C3.35354 19.7042 3.57975 19.5777 3.63228 19.4501C4.24979 17.9492 5.35724 17.1259 6.97713 17.1645C8.57773 17.2031 9.62836 18.0843 10.174 19.5788C10.1848 19.6109 10.2041 19.642 10.2448 19.7203ZM8.58846 20.5779C8.58846 19.6377 7.83051 18.8723 6.89459 18.8669C5.96082 18.8616 5.18357 19.6195 5.16641 20.5544C5.14926 21.501 5.94473 22.2997 6.89673 22.2922C7.83372 22.2847 8.58846 21.5192 8.58846 20.5779Z" fill="black"/>
<path d="M3.50253 2.56719C4.07931 0.964448 5.14387 0.0553336 6.82273 0.00173005C8.22714 -0.0432969 9.48575 0.79399 10.0057 2.11585C10.1526 2.49001 10.337 2.57577 10.7036 2.5747C15.3135 2.56398 19.9224 2.56612 24.5323 2.57148C24.7595 2.57148 25.0672 2.54253 25.198 2.67011C25.4285 2.89525 25.6665 3.22008 25.6922 3.52241C25.7265 3.92229 25.406 4.19781 24.99 4.27178C24.8164 4.30287 24.6341 4.28679 24.4551 4.28679C19.8634 4.28787 15.2717 4.28787 10.68 4.28679C10.4152 4.28679 10.2008 4.25678 10.0604 4.61377C9.48897 6.06214 8.27003 6.87477 6.80022 6.85976C5.37437 6.84475 4.18222 5.98388 3.62046 4.56446C3.58722 4.48191 3.5497 4.40043 3.50039 4.28679C2.68883 4.28679 1.86977 4.29001 1.04963 4.28572C0.373159 4.28251 -0.00635196 3.9641 8.04573e-05 3.41627C0.00651288 2.87166 0.381735 2.57148 1.07 2.56934C1.87406 2.56505 2.67704 2.56719 3.50253 2.56719ZM5.14923 3.4152C5.14387 4.35755 5.89432 5.12622 6.83024 5.13909C7.78438 5.15195 8.58092 4.36184 8.57127 3.41091C8.56163 2.48036 7.78545 1.71275 6.85382 1.71383C5.91362 1.71597 5.15352 2.475 5.14923 3.4152Z" fill="black"/>
<path d="M20.4638 12.8633C19.7648 14.6012 18.6069 15.4588 17.0406 15.4352C15.5505 15.4127 14.3851 14.5133 13.7687 12.8633C13.5854 12.8633 13.3774 12.8633 13.1683 12.8633C9.18772 12.8633 5.20605 12.8633 1.22546 12.8633C1.06465 12.8633 0.900622 12.8805 0.744099 12.8515C0.284181 12.7668 0.00758352 12.4903 0.00329524 12.011C-0.000993042 11.5308 0.272388 11.2499 0.730162 11.1598C0.902765 11.1255 1.08609 11.1459 1.26405 11.1459C5.22749 11.1448 9.19094 11.1459 13.1533 11.1459C13.3484 11.1459 13.5435 11.1459 13.7504 11.1459C14.3594 9.47988 15.4979 8.51073 17.2926 8.59221C18.8932 8.66404 19.9063 9.59781 20.453 11.1459C21.5841 11.1459 22.7408 11.1459 23.8976 11.1459C24.1828 11.1459 24.469 11.1405 24.7542 11.147C25.3331 11.1609 25.719 11.5029 25.7233 11.9982C25.7287 12.4913 25.3406 12.8569 24.767 12.8612C23.4816 12.8698 22.1962 12.8644 20.9108 12.8644C20.7725 12.8633 20.631 12.8633 20.4638 12.8633ZM15.4347 11.9832C15.4315 12.963 16.1283 13.6963 17.0771 13.7135C18.0366 13.7317 18.8192 12.9577 18.8149 11.995C18.8106 11.0537 18.0537 10.2947 17.1157 10.2904C16.1658 10.2861 15.4368 11.0194 15.4347 11.9832Z" fill="black"/>
</svg>
