<svg width="23" height="24" viewBox="0 0 23 24" fill="none" xmlns="http://www.w3.org/2000/svg">
<path d="M0.583008 21.4206C0.583008 19.9481 0.583008 18.4756 0.583008 17.003C0.588248 16.9888 0.59536 16.975 0.59798 16.9604C0.6414 16.7156 0.673965 16.4681 0.729363 16.226C0.812834 15.8614 0.897054 15.4957 1.00897 15.1393C1.12201 14.7789 1.25564 14.4233 1.40499 14.0763C1.61872 13.58 1.8901 13.1143 2.2251 12.6876C2.53017 12.2991 2.87453 11.951 3.299 11.6957C3.52808 11.5579 3.77138 11.4415 4.01618 11.333C4.30739 11.2038 4.61732 11.1275 4.93136 11.077C5.12638 11.0455 5.32589 11.044 5.52128 11.0144C5.75634 10.9785 5.96109 11.0425 6.15498 11.1672C6.46678 11.3674 6.77858 11.5684 7.09188 11.7664C7.48041 12.012 7.86184 12.2669 8.28481 12.4559C8.76991 12.6726 9.26737 12.8508 9.78092 12.9803C10.2327 13.0945 10.6935 13.157 11.1603 13.1708C11.56 13.1824 11.9575 13.1611 12.3524 13.1016C12.5654 13.0694 12.7784 13.0297 12.9861 12.9747C13.2407 12.9073 13.4911 12.8227 13.7419 12.7411C14.1023 12.624 14.4557 12.4847 14.7832 12.295C15.1961 12.0554 15.5947 11.7915 16.0005 11.5392C16.246 11.3865 16.4908 11.2323 16.7412 11.0878C16.8161 11.0448 16.9089 11.0107 16.9939 11.01C17.4011 11.007 17.805 11.053 18.1991 11.1548C18.5768 11.2521 18.9365 11.4007 19.2768 11.5928C19.8016 11.8888 20.2283 12.2946 20.5861 12.7756C20.9653 13.2854 21.2565 13.8431 21.4934 14.4315C21.7034 14.9537 21.8479 15.4949 21.9707 16.0429C22.0134 16.2331 22.0549 16.4232 22.089 16.6152C22.1185 16.7818 22.1567 16.9503 22.1571 17.1183C22.1627 18.5238 22.1605 19.9294 22.1593 21.3349C22.1593 21.378 22.1556 21.424 22.1403 21.4637C22.074 21.6321 22.0126 21.8036 21.9318 21.9649C21.6245 22.5758 21.167 23.0515 20.585 23.403C20.0134 23.7485 19.3842 23.9214 18.7202 23.9738C18.6566 23.9787 18.5937 23.9914 18.5304 24C13.7628 24 8.99524 24 4.22766 24C4.17451 23.9918 4.12173 23.9824 4.06821 23.9757C3.93607 23.9592 3.80319 23.9468 3.67106 23.9281C3.1489 23.854 2.65743 23.6904 2.20077 23.4232C1.6438 23.0975 1.19575 22.6618 0.88545 22.0955C0.768291 21.8803 0.683323 21.6463 0.583008 21.4206Z" fill="black"/>
<path d="M11.3695 12.0064C8.09091 12.0588 5.35321 9.25856 5.36182 5.99271C5.3708 2.72274 8.12909 -0.00635216 11.3841 1.11052e-05C14.6484 0.00637437 17.3903 2.7568 17.3809 6.0264C17.3719 9.29337 14.6234 12.0644 11.3695 12.0064Z" fill="black"/>
</svg>
