<svg width="25" height="24" viewBox="0 0 25 24" fill="none" xmlns="http://www.w3.org/2000/svg">
<path d="M13.559 0.000772977C13.6513 0.0316619 13.7424 0.0652536 13.8359 0.0934397C14.1695 0.193443 14.4393 0.38534 14.6393 0.667201C14.7405 0.809676 14.8409 0.961032 14.8988 1.1232C14.9934 1.38807 15.0428 1.66607 14.9915 1.95218C14.9471 2.19968 14.8606 2.42903 14.7324 2.64486C14.715 2.67382 14.7243 2.72942 14.7394 2.76494C14.8077 2.92595 14.9069 3.07769 14.9482 3.24449C14.9938 3.42867 15.0119 3.62674 14.9992 3.81632C14.9807 4.09548 14.888 4.3592 14.7347 4.59859C14.5289 4.92022 14.2494 5.15266 13.8934 5.28509C13.7023 5.35614 13.5026 5.39552 13.2934 5.39359C12.6347 5.38702 11.9756 5.38702 11.3169 5.39397C11.13 5.3959 10.9636 5.35034 10.8188 5.24185C10.7087 5.15922 10.6327 5.04261 10.6029 4.90516C10.5829 4.81288 10.557 4.71712 10.5628 4.62445C10.5875 4.24336 10.8307 3.94722 11.2535 3.94142C11.9323 3.93216 12.6111 3.93872 13.2899 3.93756C13.4324 3.93718 13.5478 3.8337 13.5555 3.70358C13.5648 3.54952 13.449 3.4221 13.2934 3.42133C12.8841 3.41979 12.4748 3.4221 12.0655 3.41979C11.7783 3.41786 11.5524 3.30164 11.4261 3.03599C11.34 2.85491 11.3284 2.66455 11.3864 2.46802C11.4427 2.27613 11.5481 2.12516 11.7331 2.04832C11.8331 2.00662 11.9462 1.97843 12.0543 1.97612C12.4667 1.96762 12.8795 1.97342 13.2918 1.97148C13.4289 1.97071 13.5494 1.8572 13.5555 1.73017C13.5629 1.57379 13.4509 1.45487 13.2914 1.45487C12.6061 1.45371 11.9207 1.45834 11.2354 1.45062C11.0412 1.4483 10.8655 1.37417 10.7358 1.21664C10.5898 1.03941 10.5277 0.832456 10.5674 0.611215C10.6165 0.33862 10.7508 0.119695 11.0423 0.038612C11.0582 0.0339787 11.0701 0.0139008 11.0837 0.00115917C11.9084 0.000773059 12.7339 0.000772977 13.559 0.000772977Z" fill="black"/>
<path d="M23.9215 0.000772977C23.9956 0.0386119 24.0751 0.0683424 24.1423 0.11622C24.3412 0.257923 24.4389 0.454454 24.4427 0.700407C24.447 0.958329 24.3721 1.18498 24.1477 1.32243C24.0327 1.39309 23.8867 1.44444 23.7531 1.44753C23.1979 1.46143 22.6419 1.45332 22.0863 1.45371C21.9531 1.45371 21.9562 1.45448 21.9473 1.58383C21.9388 1.70816 21.9226 1.83171 21.909 1.96376C21.9531 1.96685 21.9921 1.97148 22.0311 1.97187C22.294 1.97303 22.5569 1.96608 22.8195 1.97496C23.1697 1.98693 23.4971 2.07651 23.7821 2.29196C24.0083 2.463 24.1744 2.67923 24.2898 2.93715C24.4361 3.2638 24.4678 3.6086 24.4211 3.95571C24.3585 4.41866 24.1431 4.80631 23.7632 5.08624C23.5701 5.22833 23.3496 5.32563 23.1075 5.35034C22.8975 5.37197 22.6863 5.38664 22.4751 5.38934C22.0191 5.39513 21.5635 5.38818 21.1075 5.39243C20.8318 5.39513 20.616 5.28779 20.4774 5.05188C20.3542 4.84222 20.3411 4.61442 20.4291 4.38661C20.5557 4.05919 20.8117 3.9364 21.1473 3.93756C21.6697 3.93949 22.1921 3.93486 22.7145 3.93988C22.8967 3.94181 22.9689 3.8615 23.0079 3.7001C23.0373 3.57771 22.9029 3.42519 22.7635 3.4221C22.5905 3.41863 22.4176 3.42095 22.2446 3.42095C21.8619 3.42056 21.4793 3.42249 21.0967 3.4194C20.8303 3.41747 20.6202 3.30202 20.4785 3.07653C20.3847 2.9275 20.3484 2.76378 20.3723 2.58502C20.4032 2.35566 20.4221 2.12477 20.4503 1.89465C20.4731 1.70777 20.5024 1.52166 20.5291 1.33517C20.5322 1.31201 20.5376 1.28923 20.5395 1.26645C20.5569 1.06876 20.5608 0.868751 20.5936 0.673765C20.6445 0.369895 20.7951 0.13514 21.1098 0.0393841C21.1245 0.0351369 21.1341 0.014287 21.1457 0.00115917C22.0712 0.000773059 22.9963 0.000772977 23.9215 0.000772977Z" fill="black"/>
<path d="M3.33633 0.000772093C3.38575 0.0320471 3.43363 0.066025 3.48498 0.093825C3.72205 0.2224 3.85912 0.415069 3.85912 0.689594C3.86028 2.03944 3.85294 3.38967 3.86376 4.73951C3.86646 5.08431 3.51394 5.40131 3.20466 5.39938C2.95331 5.39783 2.73708 5.34339 2.57337 5.14918C2.4448 4.99628 2.40966 4.80593 2.40889 4.61364C2.40541 3.60937 2.40734 2.60509 2.40734 1.60082C2.40734 1.55757 2.40734 1.51471 2.40734 1.45332C2.28417 1.45332 2.16641 1.45332 2.04865 1.45332C1.89266 1.45371 1.75597 1.39965 1.62315 1.3205C1.42469 1.20235 1.24631 0.760253 1.35789 0.543258C1.40037 0.460631 1.42122 0.366419 1.46871 0.287267C1.54516 0.15985 1.66369 0.080697 1.80733 0.038997C1.82046 0.0351359 1.82856 0.0135139 1.83899 0C2.33784 0.000772222 2.83709 0.000772093 3.33633 0.000772093Z" fill="black"/>
<path d="M2.39886 11.9953C2.39886 10.3984 2.39886 8.80141 2.39924 7.20407C2.39924 6.96622 2.495 6.77471 2.69076 6.63919C3.04019 6.39787 3.60507 6.48551 3.79156 6.92414C3.83403 7.02414 3.85102 7.1419 3.85141 7.25156C3.85527 8.5458 3.85411 9.84005 3.85411 11.1343C3.85411 11.266 3.85411 11.2663 3.98346 11.2663C5.93679 11.2663 7.88974 11.2663 9.84308 11.2667C9.92262 11.2667 9.97976 11.2652 10.0091 11.1602C10.084 10.8907 10.206 10.6385 10.3639 10.4069C10.5539 10.1281 10.7728 9.87518 11.0589 9.69101C11.2512 9.56707 11.4474 9.44853 11.6478 9.33849C11.7323 9.29216 11.83 9.26127 11.9254 9.24505C12.0223 9.22845 12.0296 9.17246 12.0292 9.09717C12.0281 8.83114 12.0289 8.56472 12.0289 8.29869C12.0289 7.96934 12.0227 7.6396 12.0319 7.31063C12.0354 7.18129 12.0648 7.05039 12.0987 6.92452C12.1478 6.74459 12.2864 6.63532 12.4489 6.5693C12.7833 6.43339 13.1876 6.51756 13.3837 6.84846C13.4239 6.91641 13.4594 6.99943 13.4606 7.07588C13.4714 7.67782 13.4729 8.27977 13.4775 8.88211C13.4775 8.90527 13.4775 8.92883 13.4775 8.95199C13.4775 9.21339 13.4837 9.19717 13.7297 9.29216C13.9548 9.37903 14.1749 9.48946 14.3772 9.62035C14.6204 9.77788 14.8305 9.98175 15.0096 10.2123C15.2197 10.4829 15.3907 10.7744 15.4834 11.108C15.5278 11.2679 15.5309 11.2671 15.7046 11.2671C17.6414 11.2671 19.5777 11.2671 21.5145 11.2671C21.6658 11.2671 21.6658 11.2671 21.6658 11.1173C21.6658 9.82306 21.6704 8.52881 21.6635 7.23457C21.6604 6.68784 22.1735 6.4025 22.6392 6.54845C22.9373 6.64189 23.1214 6.92761 23.1214 7.23071C23.1203 10.408 23.1211 13.5857 23.1203 16.763C23.1203 17.0669 22.9832 17.2974 22.7071 17.4202C22.4994 17.5125 22.2844 17.5117 22.0662 17.4078C21.7785 17.2704 21.665 17.0449 21.665 16.741C21.6658 15.4468 21.6654 14.1525 21.6654 12.8583C21.6654 12.7166 21.6654 12.7166 21.5245 12.7162C19.5847 12.7162 17.6448 12.7162 15.705 12.7162C15.5386 12.7162 15.5309 12.7201 15.4838 12.8799C15.3243 13.4216 15.0069 13.8568 14.5803 14.2174C14.3251 14.4332 14.0328 14.5861 13.7239 14.7089C13.6787 14.7267 13.6316 14.7448 13.5837 14.7506C13.4829 14.763 13.4772 14.8301 13.4775 14.9089C13.4783 15.4514 13.4787 15.9935 13.4775 16.536C13.4772 16.6557 13.4691 16.7754 13.466 16.8947C13.4594 17.1372 13.242 17.3607 13.0366 17.4364C12.8042 17.5217 12.5752 17.5017 12.3679 17.3827C12.2065 17.2897 12.0671 17.1472 12.0597 16.946C12.0412 16.4279 12.0377 15.9093 12.0292 15.3912C12.0269 15.2383 12.0289 15.085 12.0289 14.9321C12.0289 14.7707 12.0296 14.7676 11.8783 14.724C11.4709 14.607 11.1223 14.39 10.8107 14.1081C10.5566 13.8784 10.3527 13.6073 10.1964 13.3046C10.1149 13.1467 10.0581 12.9753 10.0014 12.8062C9.98015 12.7428 9.9481 12.7201 9.8898 12.7174C9.86007 12.7162 9.82995 12.7166 9.79984 12.7166C7.87005 12.7166 5.93988 12.7166 4.0101 12.7166C3.85411 12.7166 3.85411 12.7166 3.85411 12.8737C3.85411 14.1745 3.85527 15.4757 3.85295 16.7765C3.85256 17.0287 3.74832 17.2364 3.53132 17.3715C3.14135 17.614 2.56527 17.4607 2.44056 17.0078C2.41546 16.9175 2.40079 16.8209 2.40079 16.7271C2.39808 15.1495 2.39886 13.5726 2.39886 11.9953ZM14.1749 11.9988C14.1961 11.2254 13.5389 10.5729 12.759 10.574C11.981 10.5752 11.3396 11.2107 11.3362 11.9934C11.3331 12.766 11.9829 13.4162 12.7559 13.4174C13.5235 13.4189 14.1957 12.7706 14.1749 11.9988Z" fill="black"/>
<path d="M21.6674 22.3609C21.6674 22.6975 21.6674 23.0165 21.6674 23.3354C21.6674 23.5354 21.584 23.6972 21.4291 23.8184C21.0751 24.0949 20.5793 24.035 20.3357 23.6543C20.2619 23.5393 20.2237 23.3817 20.2229 23.2431C20.2148 21.9029 20.2106 20.5624 20.2225 19.2218C20.226 18.8368 20.4221 18.597 20.8013 18.4762C20.8472 18.4615 20.9005 18.4689 20.9503 18.4689C21.5257 18.4685 22.1013 18.4669 22.6766 18.4692C23.1079 18.4708 23.4925 18.6024 23.8369 18.8689C24.1099 19.0797 24.2968 19.3457 24.4358 19.6561C24.5983 20.0191 24.6277 20.4006 24.5643 20.7805C24.4856 21.2523 24.2427 21.6423 23.8605 21.9381C23.7516 22.0222 23.7427 22.0404 23.8311 22.14C24.0242 22.3574 24.2261 22.5674 24.4161 22.7875C24.547 22.9389 24.6466 23.1176 24.6122 23.323C24.5705 23.5729 24.4427 23.7806 24.2068 23.8991C24.1203 23.9424 24.0261 23.9814 23.9315 23.9941C23.6666 24.0292 23.4666 23.9038 23.2967 23.7119C23.0438 23.4265 22.7871 23.1447 22.5322 22.8613C22.4048 22.7192 22.2763 22.5782 22.1519 22.4334C22.1075 22.3817 22.0604 22.3562 21.9905 22.3601C21.8886 22.3647 21.7859 22.3609 21.6674 22.3609ZM21.677 19.9202C21.677 20.2581 21.677 20.5778 21.677 20.9017C22.0469 20.9017 22.4087 20.9048 22.7701 20.8987C22.8234 20.8979 22.8797 20.86 22.928 20.8288C23.1006 20.7168 23.1338 20.5492 23.1326 20.3542C23.1315 20.1249 22.894 19.9114 22.679 19.9202C22.5068 19.9276 22.3338 19.9206 22.1608 19.9202C22.0021 19.9202 21.843 19.9202 21.677 19.9202Z" fill="black"/>
<path d="M2.62705 22.1717C2.68573 22.1717 2.72782 22.1717 2.76991 22.1717C3.38884 22.1717 4.00778 22.1701 4.62672 22.1724C4.82286 22.1732 5.00819 22.2253 5.14797 22.3674C5.27886 22.5002 5.35299 22.6628 5.35878 22.8586C5.36651 23.1219 5.28735 23.3389 5.07267 23.498C4.96534 23.5775 4.84448 23.6231 4.70934 23.6231C3.9406 23.6238 3.17185 23.6242 2.4031 23.6246C2.15367 23.6246 1.90386 23.618 1.65443 23.6258C1.33203 23.6358 1.08608 23.4111 0.989548 23.1354C0.921206 22.9404 0.87912 22.7435 0.908851 22.5427C0.958273 22.2076 1.0687 21.8929 1.25712 21.6045C1.47412 21.2724 1.75019 21.001 2.0807 20.7905C2.29422 20.6546 2.52666 20.5473 2.75717 20.4407C2.91624 20.367 3.08382 20.3087 3.25216 20.2585C3.40274 20.2137 3.55912 20.1882 3.71356 20.1577C3.86492 20.1276 3.91936 20.0473 3.90276 19.8701C3.89117 19.75 3.81241 19.6863 3.6707 19.6863C2.99848 19.6859 2.32627 19.6789 1.65405 19.6886C1.23048 19.6948 0.918504 19.3623 0.931246 18.9554C0.939354 18.7071 1.02044 18.4963 1.23087 18.3623C1.33435 18.2963 1.46562 18.2414 1.58532 18.2395C2.33399 18.2291 3.08382 18.2078 3.83094 18.2438C4.43134 18.2727 4.89313 18.5754 5.17384 19.1287C5.34913 19.4739 5.39701 19.8407 5.34411 20.2121C5.29044 20.5902 5.1221 20.9257 4.82711 21.1832C4.59197 21.3886 4.32246 21.5203 4.01048 21.5686C3.77341 21.6052 3.53634 21.6485 3.30429 21.7087C3.05949 21.772 2.78458 21.9025 2.62705 22.1717Z" fill="black"/>
<path d="M14.1154 20.4909C14.2266 20.4909 14.3254 20.4886 14.4243 20.4913C14.6193 20.4967 14.81 20.5206 14.9718 20.6446C15.193 20.8133 15.2977 21.1604 15.2108 21.4388C15.1695 21.5716 15.1092 21.6832 15.0108 21.774C14.9034 21.8728 14.7776 21.9404 14.6262 21.9423C14.4899 21.9442 14.3532 21.9493 14.2173 21.9435C14.1366 21.94 14.1135 21.9693 14.1142 22.0462C14.1169 22.3655 14.1173 22.6848 14.1146 23.0041C14.1123 23.3265 13.9749 23.5767 13.6741 23.6999C13.5339 23.7574 13.3775 23.7841 13.2107 23.7331C13.0617 23.6875 12.9281 23.6308 12.8269 23.5169C12.7277 23.4057 12.6636 23.2721 12.6628 23.1176C12.6613 22.7682 12.6582 22.4192 12.6628 22.0697C12.664 21.974 12.6354 21.9423 12.5381 21.9431C12.0327 21.9469 11.5265 21.935 11.0215 21.9481C10.6578 21.9578 10.3883 21.7222 10.2929 21.4288C10.2767 21.3794 10.2755 21.3238 10.2755 21.2709C10.2747 20.5226 10.274 19.7739 10.2767 19.0256C10.2775 18.7839 10.3925 18.6005 10.5991 18.4828C11.0022 18.253 11.474 18.3939 11.6659 18.809C11.7095 18.9036 11.7176 19.021 11.7192 19.1279C11.725 19.5469 11.7238 19.9662 11.72 20.3851C11.7192 20.4689 11.7454 20.4932 11.8277 20.4917C12.0736 20.4871 12.32 20.4882 12.5663 20.4909C12.6385 20.4917 12.6636 20.4689 12.6628 20.3936C12.6598 19.9546 12.6659 19.5156 12.6605 19.0766C12.6563 18.7469 12.8756 18.4955 13.1679 18.4105C13.4656 18.3241 13.7096 18.4009 13.9231 18.6044C14.0579 18.7326 14.11 18.9048 14.1131 19.0835C14.1204 19.509 14.1158 19.9349 14.1158 20.3608C14.1154 20.4006 14.1154 20.4396 14.1154 20.4909Z" fill="black"/>
</svg>
