<svg width="15" height="15" viewBox="0 0 15 15" fill="none" xmlns="http://www.w3.org/2000/svg">
<path d="M0.439218 0.439828C1.025 -0.145958 1.97475 -0.145958 2.56054 0.439828L13.8742 11.7535C14.46 12.3393 14.46 13.2891 13.8742 13.8749C13.2885 14.4606 12.3387 14.4606 11.7529 13.8749L0.439218 2.56115C-0.146568 1.97536 -0.146568 1.02561 0.439218 0.439828Z" fill="#D9D9D9"/>
<path d="M0.439218 13.8749C-0.146569 13.2891 -0.146569 12.3393 0.439218 11.7535L11.7529 0.439828C12.3387 -0.145958 13.2885 -0.145958 13.8742 0.439828C14.46 1.02561 14.46 1.97536 13.8742 2.56115L2.56054 13.8749C1.97475 14.4606 1.025 14.4606 0.439218 13.8749Z" fill="#D9D9D9"/>
</svg>
